<?xml version="1.0" encoding="UTF-8" standalone="no"?>
<!-- Created with Inkscape (http://www.inkscape.org/) -->

<svg
   xmlns:dc="http://purl.org/dc/elements/1.1/"
   xmlns:cc="http://creativecommons.org/ns#"
   xmlns:rdf="http://www.w3.org/1999/02/22-rdf-syntax-ns#"
   xmlns:svg="http://www.w3.org/2000/svg"
   xmlns="http://www.w3.org/2000/svg"
   xmlns:inkscape="http://www.inkscape.org/namespaces/inkscape"
   version="1.1"
   width="40.612"
   height="36.269001"
   viewBox="0 0 40.612 36.269"
   id="Layer_1"
   xml:space="preserve"><metadata
   id="metadata17"><rdf:RDF><cc:Work
       rdf:about=""><dc:format>image/svg+xml</dc:format><dc:type
         rdf:resource="http://purl.org/dc/dcmitype/StillImage" /></cc:Work></rdf:RDF></metadata><defs
   id="defs15" />
<g
   id="g3">
	<path
   d="m 17.341,1.855 c 1.447,-2.438 4.663,-2.438 5.884,-0.21 l 8.523,14.809 8.402,14.599 c 1.3,2.14 -0.309,5.211 -2.76,5.216 H 20.343 L 3.436,36.264 c -2.632,0 -4.24,-2.778 -3.021,-5.001 l 8.523,-14.809 8.403,-14.599 0,0 z"
   inkscape:connector-curvature="0"
   id="path5"
   style="fill:#e30613;fill-rule:evenodd" />
	<polygon
   points="28.496,18.328 36.772,32.707 20.221,32.707 3.669,32.707 11.945,18.328 20.221,3.951 20.221,3.951 "
   id="polygon7"
   style="fill:#ffffff;fill-rule:evenodd" />
	<path
   d="m 20.25,31.146 c 0.889,0 1.609,-0.917 1.609,-2.047 0,-1.13 -0.722,-2.047 -1.609,-2.047 -0.889,0 -1.608,0.917 -1.608,2.047 0,1.13 0.719,2.047 1.608,2.047 l 0,0 0,0 z"
   inkscape:connector-curvature="0"
   id="path9"
   style="fill-rule:evenodd" />
	<path
   d="m 19.898,25.415 c 0.176,0.467 0.527,0.467 0.703,0 l 1.402,-14.323 c 0,-2.023 -3.509,-2.023 -3.509,0 l 1.404,14.323 0,0 z"
   inkscape:connector-curvature="0"
   id="path11"
   style="fill-rule:evenodd" />
</g>
</svg>