<?xml version="1.0" encoding="utf-8"?>
<!-- Generator: Adobe Illustrator 15.1.0, SVG Export Plug-In . SVG Version: 6.00 Build 0)  -->
<!DOCTYPE svg PUBLIC "-//W3C//DTD SVG 1.1//EN" "http://www.w3.org/Graphics/SVG/1.1/DTD/svg11.dtd">
<svg version="1.1" xmlns="http://www.w3.org/2000/svg" xmlns:xlink="http://www.w3.org/1999/xlink" x="0px" y="0px"
	 width="97.747px" height="42.52px" viewBox="0 0 97.747 42.52" enable-background="new 0 0 97.747 42.52" xml:space="preserve">
<g id="Claim">
	<g>
		<g>
			<path fill="#707173" d="M47.642,13.265v3.558h-0.625v-3.558h-1.134v-0.562h2.893v0.562H47.642z"/>
			<path fill="#707173" d="M49.371,15.527c0,0.503,0.266,0.821,0.746,0.821c0.33,0,0.503-0.092,0.712-0.301l0.376,0.353
				c-0.301,0.301-0.585,0.457-1.1,0.457c-0.734,0-1.319-0.388-1.319-1.504c0-0.949,0.492-1.499,1.244-1.499
				c0.787,0,1.244,0.579,1.244,1.412v0.261H49.371z M50.608,14.717c-0.092-0.22-0.3-0.371-0.579-0.371
				c-0.277,0-0.492,0.15-0.584,0.371c-0.058,0.133-0.069,0.22-0.075,0.399h1.319C50.684,14.937,50.667,14.85,50.608,14.717z"/>
			<path fill="#707173" d="M53.17,16.857c-0.66,0-1.308-0.405-1.308-1.504c0-1.099,0.648-1.499,1.308-1.499
				c0.405,0,0.688,0.116,0.966,0.411l-0.405,0.394c-0.185-0.203-0.33-0.278-0.561-0.278c-0.226,0-0.417,0.093-0.544,0.26
				c-0.127,0.162-0.174,0.371-0.174,0.712s0.047,0.556,0.174,0.717c0.127,0.168,0.318,0.261,0.544,0.261
				c0.231,0,0.376-0.075,0.561-0.278l0.405,0.388C53.859,16.736,53.575,16.857,53.17,16.857z"/>
			<path fill="#707173" d="M56.611,16.823v-1.799c0-0.446-0.26-0.643-0.59-0.643s-0.596,0.203-0.596,0.643v1.799h-0.59v-4.12h0.59
				v1.481c0.203-0.22,0.469-0.33,0.758-0.33c0.654,0,1.019,0.44,1.019,1.076v1.892H56.611z"/>
			<path fill="#707173" d="M59.896,16.823v-1.788c0-0.458-0.261-0.654-0.59-0.654s-0.607,0.203-0.607,0.654v1.788h-0.59v-2.934
				h0.579v0.295c0.203-0.22,0.486-0.33,0.781-0.33c0.301,0,0.549,0.098,0.723,0.266c0.226,0.22,0.295,0.498,0.295,0.828v1.875
				H59.896z"/>
			<path fill="#707173" d="M61.376,13.311v-0.625h0.625v0.625H61.376z M61.394,16.823v-2.934h0.59v2.934H61.394z"/>
			<path fill="#707173" d="M64.76,16.823l-0.821-1.354l-0.434,0.492v0.862h-0.59v-4.12h0.59v2.54l1.14-1.354h0.717l-1.018,1.151
				l1.145,1.782H64.76z"/>
		</g>
		<g>
			<path fill="#707173" d="M47.126,23.658c-0.48,0-0.885-0.081-1.232-0.422l0.387-0.388c0.237,0.243,0.556,0.307,0.845,0.307
				c0.359,0,0.643-0.127,0.643-0.405c0-0.197-0.11-0.324-0.394-0.347l-0.469-0.041c-0.549-0.046-0.868-0.295-0.868-0.81
				c0-0.573,0.492-0.897,1.106-0.897c0.439,0,0.815,0.093,1.087,0.33l-0.37,0.376c-0.185-0.156-0.446-0.214-0.724-0.214
				c-0.353,0-0.533,0.156-0.533,0.376c0,0.174,0.093,0.307,0.405,0.336l0.463,0.04c0.55,0.047,0.874,0.307,0.874,0.828
				C48.347,23.34,47.827,23.658,47.126,23.658z"/>
			<path fill="#707173" d="M49.556,22.327c0,0.503,0.266,0.822,0.746,0.822c0.33,0,0.503-0.092,0.712-0.301l0.376,0.353
				c-0.301,0.302-0.584,0.458-1.1,0.458c-0.734,0-1.319-0.388-1.319-1.504c0-0.949,0.492-1.499,1.244-1.499
				c0.787,0,1.244,0.579,1.244,1.412v0.26H49.556z M50.793,21.517c-0.092-0.219-0.3-0.37-0.579-0.37
				c-0.277,0-0.492,0.151-0.584,0.37c-0.058,0.133-0.069,0.22-0.075,0.4h1.319C50.869,21.737,50.852,21.65,50.793,21.517z"/>
			<path fill="#707173" d="M53.025,23.624c-0.561,0-0.804-0.376-0.804-0.81v-3.31h0.59v3.275c0,0.226,0.081,0.341,0.318,0.341h0.261
				v0.503H53.025z"/>
			<path fill="#707173" d="M56.137,23.398c-0.162,0.162-0.422,0.26-0.718,0.26c-0.318,0-0.555-0.081-0.775-0.347v0.313h-0.579v-4.12
				h0.59v1.481c0.214-0.254,0.457-0.33,0.77-0.33c0.295,0,0.549,0.098,0.711,0.261c0.295,0.295,0.33,0.792,0.33,1.238
				S56.432,23.103,56.137,23.398z M55.27,21.182c-0.532,0-0.613,0.451-0.613,0.972c0,0.521,0.082,0.978,0.613,0.978
				c0.532,0,0.607-0.457,0.607-0.978C55.877,21.633,55.802,21.182,55.27,21.182z"/>
			<path fill="#707173" d="M58.231,23.658c-0.481,0-0.886-0.081-1.233-0.422l0.388-0.388c0.237,0.243,0.555,0.307,0.845,0.307
				c0.358,0,0.642-0.127,0.642-0.405c0-0.197-0.11-0.324-0.394-0.347l-0.468-0.041c-0.55-0.046-0.868-0.295-0.868-0.81
				c0-0.573,0.492-0.897,1.105-0.897c0.44,0,0.816,0.093,1.088,0.33l-0.37,0.376c-0.185-0.156-0.446-0.214-0.723-0.214
				c-0.354,0-0.532,0.156-0.532,0.376c0,0.174,0.092,0.307,0.405,0.336l0.463,0.04c0.55,0.047,0.874,0.307,0.874,0.828
				C59.452,23.34,58.931,23.658,58.231,23.658z"/>
			<path fill="#707173" d="M61.116,23.624c-0.55,0-0.805-0.394-0.805-0.816v-1.614h-0.335v-0.451h0.335v-0.891h0.59v0.891h0.567
				v0.451h-0.567v1.585c0,0.214,0.104,0.341,0.324,0.341h0.243v0.503H61.116z"/>
			<path fill="#707173" d="M61.966,22.293v-0.55h1.689v0.55H61.966z"/>
			<path fill="#707173" d="M65.65,23.624h-0.48l-1.076-2.934h0.625l0.694,2.066l0.688-2.066h0.625L65.65,23.624z"/>
			<path fill="#707173" d="M67.674,22.327c0,0.503,0.267,0.822,0.747,0.822c0.329,0,0.503-0.092,0.711-0.301l0.376,0.353
				c-0.301,0.302-0.584,0.458-1.099,0.458c-0.735,0-1.319-0.388-1.319-1.504c0-0.949,0.492-1.499,1.244-1.499
				c0.787,0,1.244,0.579,1.244,1.412v0.26H67.674z M68.913,21.517c-0.093-0.219-0.301-0.37-0.579-0.37
				c-0.278,0-0.492,0.151-0.585,0.37c-0.058,0.133-0.069,0.22-0.075,0.4h1.319C68.987,21.737,68.97,21.65,68.913,21.517z"/>
			<path fill="#707173" d="M71.978,21.378c-0.133-0.133-0.237-0.196-0.44-0.196c-0.318,0-0.583,0.254-0.583,0.659v1.782h-0.591
				V20.69h0.579v0.318c0.15-0.208,0.451-0.353,0.78-0.353c0.284,0,0.498,0.075,0.701,0.278L71.978,21.378z"/>
			<path fill="#707173" d="M73.943,23.658c-0.48,0-0.885-0.081-1.232-0.422l0.387-0.388c0.238,0.243,0.556,0.307,0.845,0.307
				c0.359,0,0.643-0.127,0.643-0.405c0-0.197-0.11-0.324-0.394-0.347l-0.469-0.041c-0.55-0.046-0.868-0.295-0.868-0.81
				c0-0.573,0.492-0.897,1.105-0.897c0.44,0,0.816,0.093,1.088,0.33l-0.371,0.376c-0.185-0.156-0.445-0.214-0.723-0.214
				c-0.353,0-0.533,0.156-0.533,0.376c0,0.174,0.093,0.307,0.405,0.336l0.463,0.04c0.549,0.047,0.874,0.307,0.874,0.828
				C75.164,23.34,74.643,23.658,73.943,23.658z"/>
			<path fill="#707173" d="M76.829,23.624c-0.549,0-0.804-0.394-0.804-0.816v-1.614h-0.336v-0.451h0.336v-0.891h0.59v0.891h0.568
				v0.451h-0.568v1.585c0,0.214,0.104,0.341,0.324,0.341h0.244v0.503H76.829z"/>
			<path fill="#707173" d="M79.582,23.624v-0.266c-0.214,0.214-0.416,0.301-0.781,0.301c-0.364,0-0.607-0.087-0.787-0.266
				c-0.15-0.156-0.231-0.382-0.231-0.631c0-0.492,0.341-0.844,1.013-0.844h0.775v-0.209c0-0.37-0.185-0.549-0.642-0.549
				c-0.324,0-0.48,0.075-0.643,0.283l-0.388-0.364c0.278-0.324,0.567-0.422,1.053-0.422c0.804,0,1.209,0.341,1.209,1.007v1.961
				H79.582z M78.13,20.128v-0.625h0.532v0.625H78.13z M79.571,22.327h-0.688c-0.347,0-0.526,0.157-0.526,0.423
				c0,0.266,0.168,0.417,0.538,0.417c0.225,0,0.393-0.018,0.549-0.168c0.086-0.087,0.127-0.226,0.127-0.434V22.327z M79.38,20.128
				v-0.625h0.532v0.625H79.38z"/>
			<path fill="#707173" d="M82.856,23.624v-1.788c0-0.457-0.261-0.653-0.59-0.653c-0.33,0-0.608,0.202-0.608,0.653v1.788h-0.59
				V20.69h0.579v0.295c0.203-0.22,0.486-0.33,0.781-0.33c0.3,0,0.549,0.098,0.723,0.266c0.226,0.22,0.295,0.498,0.295,0.828v1.875
				H82.856z"/>
			<path fill="#707173" d="M86.065,23.624v-0.313c-0.22,0.266-0.457,0.347-0.775,0.347c-0.295,0-0.555-0.099-0.717-0.26
				c-0.295-0.295-0.33-0.798-0.33-1.244s0.035-0.943,0.33-1.238c0.162-0.163,0.417-0.261,0.711-0.261c0.313,0,0.555,0.075,0.77,0.33
				v-1.481h0.59v4.12H86.065z M85.446,21.182c-0.533,0-0.613,0.451-0.613,0.972c0,0.521,0.081,0.978,0.613,0.978
				c0.532,0,0.608-0.457,0.608-0.978C86.054,21.633,85.979,21.182,85.446,21.182z"/>
			<path fill="#707173" d="M88.367,23.624c-0.561,0-0.804-0.376-0.804-0.81v-3.31h0.59v3.275c0,0.226,0.081,0.341,0.318,0.341h0.26
				v0.503H88.367z"/>
			<path fill="#707173" d="M89.39,20.111v-0.625h0.625v0.625H89.39z M89.407,23.624V20.69h0.59v2.934H89.407z"/>
			<path fill="#707173" d="M92.091,23.658c-0.66,0-1.308-0.405-1.308-1.504c0-1.1,0.648-1.499,1.308-1.499
				c0.405,0,0.688,0.116,0.966,0.411l-0.405,0.394c-0.185-0.203-0.33-0.277-0.561-0.277c-0.226,0-0.417,0.092-0.544,0.26
				c-0.127,0.162-0.173,0.37-0.173,0.712c0,0.341,0.046,0.555,0.173,0.718c0.127,0.168,0.319,0.26,0.544,0.26
				c0.231,0,0.376-0.075,0.561-0.278l0.405,0.388C92.78,23.537,92.497,23.658,92.091,23.658z"/>
			<path fill="#707173" d="M95.532,23.624v-1.799c0-0.446-0.26-0.642-0.59-0.642s-0.596,0.202-0.596,0.642v1.799h-0.59v-4.12h0.59
				v1.481c0.203-0.22,0.469-0.33,0.758-0.33c0.654,0,1.018,0.44,1.018,1.077v1.892H95.532z"/>
			<path fill="#707173" d="M97.041,23.624v-0.706h0.706v0.706H97.041z"/>
		</g>
	</g>
</g>
<g id="Logo_blau">
	<path fill="#87CEE0" d="M42.313,18.311c-0.001,0-0.001,0-0.002,0c0.001,0.005,0.002,0.011,0.003,0.016l-5.229,12.516h-3.56
		c-0.909,0-1.137-0.277-1.137-1.212V19.533l-5.25,11.31h-3.509c-0.858,0-1.111-0.303-1.111-1.363V14.03
		c0-0.63-0.126-0.833-0.581-1.009l0.05-0.379h3.408c0.858,0,1.111,0.252,1.111,1.111v0.025l-0.101,11.309l5.806-12.445h4.039v12.37
		l4.443-12.368C37.388,5.197,29.933,0,21.26,0C9.518,0,0,9.519,0,21.26s9.518,21.26,21.26,21.26s21.26-9.519,21.26-21.26
		C42.52,20.259,42.446,19.275,42.313,18.311z M19.64,20.316c-0.908,1.136-2.095,1.918-4.695,3.181
		c-1.894,0.908-2.424,1.236-3.004,1.817c-0.278,0.278-0.556,0.631-0.757,1.06c-0.252,0.429-0.328,0.707-0.505,1.389h5.807
		c1.388,0,1.767-0.177,2.146-0.909h0.378l-0.606,2.853c-0.202,0.909-0.479,1.136-1.514,1.136H5.706
		c0.278-1.641,0.455-2.297,0.884-3.458c0.403-1.061,0.833-1.894,1.287-2.6c0.959-1.439,2.297-2.5,4.267-3.458l1.035-0.53
		c2.802-1.338,3.761-2.297,3.761-3.711c0-1.136-0.555-1.54-2.07-1.54h-3.812c-0.707,0-1.01-0.228-1.01-0.782
		c0-0.126,0.05-0.329,0.076-0.505l0.404-1.616h6.538c2.928,0,3.938,0.909,3.938,3.483C21.004,17.816,20.575,19.154,19.64,20.316z"/>
</g>
</svg>
