<?xml version="1.0" encoding="iso-8859-1"?>
<!-- Generator: Adobe Illustrator 15.0.2, SVG Export Plug-In . SVG Version: 6.00 Build 0)  -->
<!DOCTYPE svg PUBLIC "-//W3C//DTD SVG 1.1//EN" "http://www.w3.org/Graphics/SVG/1.1/DTD/svg11.dtd">
<svg version="1.1" id="Layer_1" xmlns="http://www.w3.org/2000/svg" xmlns:xlink="http://www.w3.org/1999/xlink" x="0px" y="0px"
	 width="29.522px" height="25.982px" viewBox="0 0 29.522 25.982" style="enable-background:new 0 0 29.522 25.982;"
	 xml:space="preserve">
<g>
	
		<polygon style="fill-rule:evenodd;clip-rule:evenodd;fill:#FFD900;stroke:#FFD900;stroke-width:0;stroke-linecap:square;stroke-miterlimit:10;" points="
		14.839,0.078 14.987,0.087 15.162,0.115 15.347,0.17 15.568,0.235 15.715,0.354 15.835,0.456 15.946,0.567 16.047,0.696 
		16.14,0.862 29.236,23.501 29.337,23.731 29.402,23.943 29.439,24.146 29.448,24.34 29.429,24.607 29.383,24.838 29.319,25.022 
		29.236,25.17 29.171,25.29 29.088,25.382 28.987,25.483 28.867,25.576 28.719,25.695 28.516,25.797 28.314,25.861 28.101,25.898 
		27.88,25.908 1.688,25.908 1.503,25.898 1.319,25.88 1.144,25.834 0.996,25.778 0.858,25.695 0.701,25.594 0.572,25.475 
		0.452,25.345 0.36,25.226 0.286,25.124 0.212,24.967 0.157,24.801 0.111,24.607 0.074,24.396 0.083,24.22 0.111,24.054 
		0.157,23.897 0.231,23.731 0.333,23.557 13.373,0.862 13.511,0.677 13.668,0.511 13.834,0.364 14,0.235 14.23,0.143 14.461,0.096 
		14.664,0.078 14.839,0.078 	"/>
	<polyline style="fill:none;stroke:#000000;stroke-width:0.1475;stroke-linecap:square;stroke-miterlimit:10;" points="
		14.839,0.078 14.987,0.087 15.162,0.115 15.347,0.17 15.568,0.235 15.715,0.354 15.835,0.456 15.946,0.567 16.047,0.696 
		16.14,0.862 29.236,23.501 29.337,23.731 29.402,23.943 29.439,24.146 29.448,24.34 29.429,24.607 29.383,24.838 29.319,25.022 
		29.236,25.17 29.171,25.29 29.088,25.382 28.987,25.483 28.867,25.576 28.719,25.695 28.516,25.797 28.314,25.861 28.101,25.898 
		27.88,25.908 1.688,25.908 1.503,25.898 1.319,25.88 1.144,25.834 0.996,25.778 0.858,25.695 0.701,25.594 0.572,25.475 
		0.452,25.345 0.36,25.226 0.286,25.124 0.212,24.967 0.157,24.801 0.111,24.607 0.074,24.396 0.083,24.22 0.111,24.054 
		0.157,23.897 0.231,23.731 0.333,23.557 13.373,0.862 13.511,0.677 13.668,0.511 13.834,0.364 14,0.235 14.23,0.143 14.461,0.096 
		14.664,0.078 14.839,0.078 	"/>
	<path style="fill-rule:evenodd;clip-rule:evenodd;stroke:#000000;stroke-width:0;stroke-linecap:square;stroke-miterlimit:10;" d="
		M14.941,0.862l0.147,0.046l0.12,0.065l0.101,0.083l0.083,0.101l0.074,0.12l13.097,22.648l0.055,0.111l0.037,0.101l0.009,0.12v0.139
		l-0.018,0.166l-0.056,0.147l-0.083,0.129l-0.11,0.11l-0.139,0.083l-0.147,0.056l-0.176,0.037H1.688l-0.157-0.019l-0.157-0.037
		l-0.157-0.055l-0.139-0.139l-0.101-0.157l-0.064-0.166l-0.028-0.175l0.019-0.203l0.055-0.203l0.019-0.009l0.009-0.009l0.009-0.019
		l0.019-0.01L14.056,1.277l0.101-0.138l0.129-0.12l0.138-0.102l0.129-0.037l0.129-0.028l0.129-0.009L14.941,0.862L14.941,0.862z
		 M25.953,23.243H3.625L14.784,3.84L25.953,23.243L25.953,23.243z"/>
	<path style="fill-rule:evenodd;clip-rule:evenodd;stroke:#000000;stroke-width:0;stroke-linecap:square;stroke-miterlimit:10;" d="
		M12.958,9.309l0.009-0.249l0.037-0.24l0.083-0.231l0.111-0.221l0.138-0.194L13.511,8l0.194-0.148l0.221-0.12l0.249-0.074
		l0.277-0.046h0.286l0.268,0.019l0.268,0.074l0.239,0.102l0.231,0.138l0.202,0.166l0.176,0.203l0.147,0.221l0.102,0.24l0.064,0.268
		l0.019,0.267l-0.627,7.046l-0.037,0.221l-0.083,0.194l-0.111,0.166l-0.138,0.138l-0.166,0.11l-0.175,0.083l-0.185,0.047
		l-0.194,0.019l-0.193-0.019l-0.185-0.047l-0.175-0.083l-0.157-0.101l-0.138-0.147l-0.111-0.166l-0.083-0.194l-0.055-0.221
		L12.958,9.309L12.958,9.309z M14.738,18.383l0.305,0.027l0.286,0.083l0.267,0.13l0.24,0.166l0.212,0.212l0.166,0.239l0.129,0.268
		l0.083,0.295l0.028,0.305l-0.028,0.322l-0.083,0.296l-0.129,0.276l-0.166,0.249l-0.212,0.212l-0.24,0.175l-0.267,0.13l-0.286,0.083
		l-0.305,0.027l-0.304-0.027l-0.295-0.083l-0.268-0.13l-0.24-0.175l-0.212-0.212l-0.166-0.249l-0.129-0.276l-0.083-0.296
		l-0.028-0.322l0.028-0.305l0.083-0.295l0.129-0.268l0.166-0.239l0.212-0.212l0.24-0.166l0.268-0.13l0.295-0.083L14.738,18.383
		L14.738,18.383z"/>
</g>
</svg>
