<?xml version="1.0" encoding="iso-8859-1"?>
<!-- Generator: Adobe Illustrator 15.0.2, SVG Export Plug-In . SVG Version: 6.00 Build 0)  -->
<!DOCTYPE svg PUBLIC "-//W3C//DTD SVG 1.1//EN" "http://www.w3.org/Graphics/SVG/1.1/DTD/svg11.dtd">
<svg version="1.1" id="Layer_1" xmlns="http://www.w3.org/2000/svg" xmlns:xlink="http://www.w3.org/1999/xlink" x="0px" y="0px"
	 width="41.62px" height="41.619px" viewBox="0 0 41.62 41.619" style="enable-background:new 0 0 41.62 41.619;"
	 xml:space="preserve">
<g>
	
		<polygon style="fill-rule:evenodd;clip-rule:evenodd;fill:#FFFFFF;stroke:#FFFFFF;stroke-width:0;stroke-linecap:square;stroke-miterlimit:10;" points="
		0.361,0.361 0.361,41.258 41.258,41.258 41.258,0.361 0.361,0.361 	"/>
	
		<line style="fill:none;stroke:#33569F;stroke-width:0.7226;stroke-linecap:square;stroke-miterlimit:10;" x1="41.258" y1="41.258" x2="0.361" y2="41.258"/>
	
		<line style="fill:none;stroke:#33569F;stroke-width:0.7226;stroke-linecap:square;stroke-miterlimit:10;" x1="0.361" y1="41.258" x2="0.361" y2="0.361"/>
	
		<line style="fill:none;stroke:#33569F;stroke-width:0.7226;stroke-linecap:square;stroke-miterlimit:10;" x1="0.361" y1="0.361" x2="41.258" y2="0.361"/>
	
		<line style="fill:none;stroke:#33569F;stroke-width:0.7226;stroke-linecap:square;stroke-miterlimit:10;" x1="41.258" y1="0.361" x2="41.258" y2="41.258"/>
	
		<polygon style="fill-rule:evenodd;clip-rule:evenodd;fill:#1A171B;stroke:#1A171B;stroke-width:0;stroke-linecap:square;stroke-miterlimit:10;" points="
		21.102,7.752 21.583,7.79 22.04,7.904 22.458,8.082 22.851,8.322 23.193,8.614 23.485,8.957 23.725,9.336 23.903,9.768 
		24.017,10.211 24.055,10.693 24.017,11.175 23.903,11.631 23.725,12.05 23.485,12.442 23.193,12.785 22.851,13.077 22.458,13.317 
		22.04,13.495 21.583,13.609 21.102,13.647 20.62,13.609 20.176,13.495 19.745,13.317 19.365,13.077 19.022,12.785 18.731,12.442 
		18.49,12.05 18.313,11.631 18.198,11.175 18.16,10.693 18.198,10.211 18.313,9.768 18.49,9.336 18.731,8.957 19.022,8.614 
		19.365,8.322 19.745,8.082 20.176,7.904 20.62,7.79 21.102,7.752 	"/>
	
		<line style="fill:none;stroke:#000000;stroke-width:0.5451;stroke-linecap:square;stroke-miterlimit:10;" x1="24.055" y1="10.693" x2="24.017" y2="11.175"/>
	
		<line style="fill:none;stroke:#000000;stroke-width:0.5451;stroke-linecap:square;stroke-miterlimit:10;" x1="24.017" y1="11.175" x2="23.903" y2="11.631"/>
	
		<line style="fill:none;stroke:#000000;stroke-width:0.5451;stroke-linecap:square;stroke-miterlimit:10;" x1="23.903" y1="11.631" x2="23.725" y2="12.05"/>
	
		<line style="fill:none;stroke:#000000;stroke-width:0.5451;stroke-linecap:square;stroke-miterlimit:10;" x1="23.725" y1="12.05" x2="23.485" y2="12.442"/>
	
		<line style="fill:none;stroke:#000000;stroke-width:0.5451;stroke-linecap:square;stroke-miterlimit:10;" x1="23.485" y1="12.442" x2="23.193" y2="12.785"/>
	
		<line style="fill:none;stroke:#000000;stroke-width:0.5451;stroke-linecap:square;stroke-miterlimit:10;" x1="23.193" y1="12.785" x2="22.851" y2="13.077"/>
	
		<line style="fill:none;stroke:#000000;stroke-width:0.5451;stroke-linecap:square;stroke-miterlimit:10;" x1="22.851" y1="13.077" x2="22.458" y2="13.317"/>
	
		<line style="fill:none;stroke:#000000;stroke-width:0.5451;stroke-linecap:square;stroke-miterlimit:10;" x1="22.458" y1="13.317" x2="22.04" y2="13.495"/>
	
		<line style="fill:none;stroke:#000000;stroke-width:0.5451;stroke-linecap:square;stroke-miterlimit:10;" x1="22.04" y1="13.495" x2="21.583" y2="13.609"/>
	
		<line style="fill:none;stroke:#000000;stroke-width:0.5451;stroke-linecap:square;stroke-miterlimit:10;" x1="21.583" y1="13.609" x2="21.102" y2="13.647"/>
	
		<line style="fill:none;stroke:#000000;stroke-width:0.5451;stroke-linecap:square;stroke-miterlimit:10;" x1="21.102" y1="13.647" x2="20.62" y2="13.609"/>
	
		<line style="fill:none;stroke:#000000;stroke-width:0.5451;stroke-linecap:square;stroke-miterlimit:10;" x1="20.62" y1="13.609" x2="20.176" y2="13.495"/>
	
		<line style="fill:none;stroke:#000000;stroke-width:0.5451;stroke-linecap:square;stroke-miterlimit:10;" x1="20.176" y1="13.495" x2="19.745" y2="13.317"/>
	
		<line style="fill:none;stroke:#000000;stroke-width:0.5451;stroke-linecap:square;stroke-miterlimit:10;" x1="19.745" y1="13.317" x2="19.365" y2="13.077"/>
	
		<line style="fill:none;stroke:#000000;stroke-width:0.5451;stroke-linecap:square;stroke-miterlimit:10;" x1="19.365" y1="13.077" x2="19.022" y2="12.785"/>
	
		<line style="fill:none;stroke:#000000;stroke-width:0.5451;stroke-linecap:square;stroke-miterlimit:10;" x1="19.022" y1="12.785" x2="18.731" y2="12.442"/>
	
		<line style="fill:none;stroke:#000000;stroke-width:0.5451;stroke-linecap:square;stroke-miterlimit:10;" x1="18.731" y1="12.442" x2="18.49" y2="12.05"/>
	
		<line style="fill:none;stroke:#000000;stroke-width:0.5451;stroke-linecap:square;stroke-miterlimit:10;" x1="18.49" y1="12.05" x2="18.313" y2="11.631"/>
	
		<line style="fill:none;stroke:#000000;stroke-width:0.5451;stroke-linecap:square;stroke-miterlimit:10;" x1="18.313" y1="11.631" x2="18.198" y2="11.175"/>
	
		<line style="fill:none;stroke:#000000;stroke-width:0.5451;stroke-linecap:square;stroke-miterlimit:10;" x1="18.198" y1="11.175" x2="18.16" y2="10.693"/>
	
		<line style="fill:none;stroke:#000000;stroke-width:0.5451;stroke-linecap:square;stroke-miterlimit:10;" x1="18.16" y1="10.693" x2="18.198" y2="10.211"/>
	
		<line style="fill:none;stroke:#000000;stroke-width:0.5451;stroke-linecap:square;stroke-miterlimit:10;" x1="18.198" y1="10.211" x2="18.313" y2="9.768"/>
	
		<line style="fill:none;stroke:#000000;stroke-width:0.5451;stroke-linecap:square;stroke-miterlimit:10;" x1="18.313" y1="9.768" x2="18.49" y2="9.336"/>
	
		<line style="fill:none;stroke:#000000;stroke-width:0.5451;stroke-linecap:square;stroke-miterlimit:10;" x1="18.49" y1="9.336" x2="18.731" y2="8.957"/>
	
		<line style="fill:none;stroke:#000000;stroke-width:0.5451;stroke-linecap:square;stroke-miterlimit:10;" x1="18.731" y1="8.957" x2="19.022" y2="8.614"/>
	
		<line style="fill:none;stroke:#000000;stroke-width:0.5451;stroke-linecap:square;stroke-miterlimit:10;" x1="19.022" y1="8.614" x2="19.365" y2="8.322"/>
	
		<line style="fill:none;stroke:#000000;stroke-width:0.5451;stroke-linecap:square;stroke-miterlimit:10;" x1="19.365" y1="8.322" x2="19.745" y2="8.082"/>
	
		<line style="fill:none;stroke:#000000;stroke-width:0.5451;stroke-linecap:square;stroke-miterlimit:10;" x1="19.745" y1="8.082" x2="20.176" y2="7.904"/>
	
		<line style="fill:none;stroke:#000000;stroke-width:0.5451;stroke-linecap:square;stroke-miterlimit:10;" x1="20.176" y1="7.904" x2="20.62" y2="7.79"/>
	
		<line style="fill:none;stroke:#000000;stroke-width:0.5451;stroke-linecap:square;stroke-miterlimit:10;" x1="20.62" y1="7.79" x2="21.102" y2="7.752"/>
	
		<line style="fill:none;stroke:#000000;stroke-width:0.5451;stroke-linecap:square;stroke-miterlimit:10;" x1="21.102" y1="7.752" x2="21.583" y2="7.79"/>
	
		<line style="fill:none;stroke:#000000;stroke-width:0.5451;stroke-linecap:square;stroke-miterlimit:10;" x1="21.583" y1="7.79" x2="22.04" y2="7.904"/>
	
		<line style="fill:none;stroke:#000000;stroke-width:0.5451;stroke-linecap:square;stroke-miterlimit:10;" x1="22.04" y1="7.904" x2="22.458" y2="8.082"/>
	
		<line style="fill:none;stroke:#000000;stroke-width:0.5451;stroke-linecap:square;stroke-miterlimit:10;" x1="22.458" y1="8.082" x2="22.851" y2="8.322"/>
	
		<line style="fill:none;stroke:#000000;stroke-width:0.5451;stroke-linecap:square;stroke-miterlimit:10;" x1="22.851" y1="8.322" x2="23.193" y2="8.614"/>
	
		<line style="fill:none;stroke:#000000;stroke-width:0.5451;stroke-linecap:square;stroke-miterlimit:10;" x1="23.193" y1="8.614" x2="23.485" y2="8.957"/>
	
		<line style="fill:none;stroke:#000000;stroke-width:0.5451;stroke-linecap:square;stroke-miterlimit:10;" x1="23.485" y1="8.957" x2="23.725" y2="9.336"/>
	
		<line style="fill:none;stroke:#000000;stroke-width:0.5451;stroke-linecap:square;stroke-miterlimit:10;" x1="23.725" y1="9.336" x2="23.903" y2="9.768"/>
	
		<line style="fill:none;stroke:#000000;stroke-width:0.5451;stroke-linecap:square;stroke-miterlimit:10;" x1="23.903" y1="9.768" x2="24.017" y2="10.211"/>
	
		<line style="fill:none;stroke:#000000;stroke-width:0.5451;stroke-linecap:square;stroke-miterlimit:10;" x1="24.017" y1="10.211" x2="24.055" y2="10.693"/>
	
		<polygon style="fill-rule:evenodd;clip-rule:evenodd;fill:#1A171B;stroke:#1A171B;stroke-width:0;stroke-linecap:square;stroke-miterlimit:10;" points="
		15.878,15.27 23.51,15.27 23.51,29.557 25.792,29.557 25.792,31.407 15.751,31.407 15.751,29.315 18.464,29.315 18.464,17.272 
		15.878,17.272 15.878,15.27 	"/>
	
		<line style="fill:none;stroke:#000000;stroke-width:0.5451;stroke-linecap:square;stroke-miterlimit:10;" x1="15.878" y1="15.27" x2="23.51" y2="15.27"/>
	
		<line style="fill:none;stroke:#000000;stroke-width:0.5451;stroke-linecap:square;stroke-miterlimit:10;" x1="23.51" y1="15.27" x2="23.51" y2="29.557"/>
	
		<line style="fill:none;stroke:#000000;stroke-width:0.5451;stroke-linecap:square;stroke-miterlimit:10;" x1="23.51" y1="29.557" x2="25.792" y2="29.557"/>
	
		<line style="fill:none;stroke:#000000;stroke-width:0.5451;stroke-linecap:square;stroke-miterlimit:10;" x1="25.792" y1="29.557" x2="25.792" y2="31.407"/>
	
		<line style="fill:none;stroke:#000000;stroke-width:0.5451;stroke-linecap:square;stroke-miterlimit:10;" x1="25.792" y1="31.407" x2="15.751" y2="31.407"/>
	
		<line style="fill:none;stroke:#000000;stroke-width:0.5451;stroke-linecap:square;stroke-miterlimit:10;" x1="15.751" y1="31.407" x2="15.751" y2="29.315"/>
	
		<line style="fill:none;stroke:#000000;stroke-width:0.5451;stroke-linecap:square;stroke-miterlimit:10;" x1="15.751" y1="29.315" x2="18.464" y2="29.315"/>
	
		<line style="fill:none;stroke:#000000;stroke-width:0.5451;stroke-linecap:square;stroke-miterlimit:10;" x1="18.464" y1="29.315" x2="18.464" y2="17.272"/>
	
		<line style="fill:none;stroke:#000000;stroke-width:0.5451;stroke-linecap:square;stroke-miterlimit:10;" x1="18.464" y1="17.272" x2="15.878" y2="17.272"/>
	
		<line style="fill:none;stroke:#000000;stroke-width:0.5451;stroke-linecap:square;stroke-miterlimit:10;" x1="15.878" y1="17.272" x2="15.878" y2="15.27"/>
</g>
</svg>
