<?xml version="1.0" encoding="UTF-8" standalone="no"?>
<!-- Created with Inkscape (http://www.inkscape.org/) -->

<svg
   xmlns:dc="http://purl.org/dc/elements/1.1/"
   xmlns:cc="http://creativecommons.org/ns#"
   xmlns:rdf="http://www.w3.org/1999/02/22-rdf-syntax-ns#"
   xmlns:svg="http://www.w3.org/2000/svg"
   xmlns="http://www.w3.org/2000/svg"
   xmlns:xlink="http://www.w3.org/1999/xlink"
   xmlns:sodipodi="http://sodipodi.sourceforge.net/DTD/sodipodi-0.dtd"
   xmlns:inkscape="http://www.inkscape.org/namespaces/inkscape"
   width="22"
   height="24"
   id="svg3098"
   version="1.1"
   inkscape:version="0.48.4 r9939"
   sodipodi:docname="alert8.svg">
  <defs
     id="defs3100">
    <clipPath
       id="SVGID_2_">
      <use
         xlink:href="#SVGID_1_"
         overflow="visible"
         id="use9"
         style="overflow:visible"
         x="0"
         y="0"
         width="612"
         height="792" />
    </clipPath>
    <clipPath
       id="SVGID_4_">
      <use
         xlink:href="#SVGID_3_"
         overflow="visible"
         id="use17"
         style="overflow:visible"
         x="0"
         y="0"
         width="612"
         height="792" />
    </clipPath>
    <clipPath
       id="SVGID_6_">
      <use
         xlink:href="#SVGID_5_"
         overflow="visible"
         id="use25"
         style="overflow:visible"
         x="0"
         y="0"
         width="612"
         height="792" />
    </clipPath>
    <clipPath
       id="SVGID_8_">
      <use
         xlink:href="#SVGID_7_"
         overflow="visible"
         id="use33"
         style="overflow:visible"
         x="0"
         y="0"
         width="612"
         height="792" />
    </clipPath>
    <clipPath
       id="clipPath3042">
      <use
         xlink:href="#SVGID_7_"
         overflow="visible"
         id="use3044"
         style="overflow:visible"
         x="0"
         y="0"
         width="612"
         height="792" />
    </clipPath>
    <clipPath
       id="clipPath3046">
      <use
         xlink:href="#SVGID_7_"
         overflow="visible"
         id="use3048"
         style="overflow:visible"
         x="0"
         y="0"
         width="612"
         height="792" />
    </clipPath>
  </defs>
  <sodipodi:namedview
     id="base"
     pagecolor="#ffffff"
     bordercolor="#666666"
     borderopacity="1.0"
     inkscape:pageopacity="0.0"
     inkscape:pageshadow="2"
     inkscape:zoom="7.7781746"
     inkscape:cx="60.474983"
     inkscape:cy="21.173409"
     inkscape:current-layer="layer1"
     showgrid="true"
     inkscape:document-units="px"
     inkscape:grid-bbox="true"
     inkscape:window-width="1920"
     inkscape:window-height="1027"
     inkscape:window-x="1272"
     inkscape:window-y="-8"
     inkscape:window-maximized="1" />
  <metadata
     id="metadata3103">
    <rdf:RDF>
      <cc:Work
         rdf:about="">
        <dc:format>image/svg+xml</dc:format>
        <dc:type
           rdf:resource="http://purl.org/dc/dcmitype/StillImage" />
        <dc:title></dc:title>
      </cc:Work>
    </rdf:RDF>
  </metadata>
  <g
     id="layer1"
     inkscape:label="Layer 1"
     inkscape:groupmode="layer"
     transform="translate(0,-40)">
    <g
       id="g3"
       transform="matrix(0.25685309,0,0,0.25685309,-7.2972028,36.53171)"
       style="fill-rule:evenodd">
      <defs
         id="defs5">
        <rect
           id="SVGID_1_"
           x="32"
           y="27"
           width="76"
           height="74" />
      </defs>
      <clipPath
         id="clipPath3053">
        <use
           xlink:href="#SVGID_1_"
           overflow="visible"
           id="use3055"
           style="overflow:visible"
           x="0"
           y="0"
           width="612"
           height="792" />
      </clipPath>
      <g
         clip-path="url(#SVGID_2_)"
         id="g11"
         style="fill-rule:evenodd">
        <defs
           id="defs13">
          <rect
             id="SVGID_3_"
             x="43.984001"
             y="42.688999"
             width="55.929001"
             height="47.530998" />
        </defs>
        <clipPath
           id="clipPath3060">
          <use
             xlink:href="#SVGID_3_"
             overflow="visible"
             id="use3062"
             style="overflow:visible"
             x="0"
             y="0"
             width="612"
             height="792" />
        </clipPath>
        <g
           clip-path="url(#SVGID_4_)"
           id="g19"
           style="fill-rule:evenodd">
          <defs
             id="defs21">
            <rect
               id="SVGID_5_"
               x="43.984001"
               y="42.688999"
               width="72.904999"
               height="61.438999" />
          </defs>
          <clipPath
             id="clipPath3067">
            <use
               xlink:href="#SVGID_5_"
               overflow="visible"
               id="use3069"
               style="overflow:visible"
               x="0"
               y="0"
               width="612"
               height="792" />
          </clipPath>
          <g
             clip-path="url(#SVGID_6_)"
             id="g27"
             style="fill-rule:evenodd">
            <defs
               id="defs29">
              <rect
                 id="SVGID_7_"
                 x="43.984001"
                 y="42.688999"
                 width="72.904999"
                 height="61.438999" />
            </defs>
            <clipPath
               id="clipPath3074">
              <use
                 xlink:href="#SVGID_7_"
                 overflow="visible"
                 id="use3076"
                 style="overflow:visible"
                 x="0"
                 y="0"
                 width="612"
                 height="792" />
            </clipPath>
            <polygon
               clip-path="url(#SVGID_8_)"
               points="96.493,87.293 96.755,86.734 96.821,86.474 96.854,86.145 96.854,85.849 96.79,85.554 96.691,85.226 96.56,84.931 72.321,44.164 72.19,43.932 71.992,43.738 71.601,43.442 71.108,43.279 70.617,43.214 70.092,43.279 69.6,43.474 69.207,43.769 68.876,44.164 44.934,85.326 44.836,85.619 44.738,85.884 44.738,86.179 44.738,86.44 44.869,86.932 45.132,87.424 45.493,87.819 45.951,88.115 46.444,88.31 47.001,88.408 94.232,88.408 94.624,88.376 94.954,88.343 95.281,88.244 95.608,88.115 95.87,87.949 96.1,87.754 96.33,87.523 "
               id="polygon35"
               style="fill-rule:evenodd" />
            <path
               clip-path="url(#SVGID_8_)"
               d="M 68.876,44.164 44.934,85.326 c -0.754,1.475 0.593,3.082 2.067,3.082 h 47.231 c 2.067,0.068 3.244,-1.868 2.328,-3.477 L 72.321,44.164 c -0.689,-1.279 -2.721,-1.246 -3.445,0 z"
               id="path37"
               inkscape:connector-curvature="0"
               style="fill:none;stroke:#000000;stroke-width:0.098" />
            <g
               clip-path="url(#SVGID_8_)"
               id="g39"
               style="fill-rule:evenodd">
              <path
                 d="m 67.501,81.774 c 0,-1.45 1.007,-2.497 2.376,-2.497 1.449,0 2.376,1.047 2.376,2.497 0,1.409 -0.927,2.497 -2.376,2.497 -1.409,0 -2.376,-1.087 -2.376,-2.497 z m 1.007,-5.758 -0.563,-19.329 h 3.865 l -0.563,19.329 h -2.739 z"
                 id="path41"
                 inkscape:connector-curvature="0"
                 style="fill:#ffffff;fill-rule:evenodd" />
            </g>
          </g>
        </g>
      </g>
    </g>
  </g>
</svg>
